<svg width="168" height="58" viewBox="0 0 168 58" fill="none" xmlns="http://www.w3.org/2000/svg">
<path d="M0 42H1V41H0V42ZM6 42H8V41H6V42ZM13 42H15V41H13V42ZM20 42H22V41H20V42ZM27 42H29V41H27V42ZM34 42H36V41H34V42ZM41 42H43V41H41V42ZM48 42H50V41H48V42ZM55 42H57V41H55V42ZM62 42H64V41H62V42ZM69 42H71V41H69V42ZM76 42H78V41H76V42ZM83 42H85V41H83V42ZM90 42H92V41H90V42ZM97 42H99V41H97V42ZM104 42H106V41H104V42ZM111 42H113V41H111V42ZM118 42H120V41H118V42ZM125 42H127V41H125V42ZM132 42H134V41H132V42ZM139 42H141V41H139V42ZM146 42H148V41H146V42ZM153 42H155V41H153V42ZM160 42H162V41H160V42ZM167 42H168V41H167V42Z" fill="white"/>
<circle cx="30" cy="55" r="3" fill="#F53939"/>
<circle cx="50" cy="33" r="3" fill="#F53939"/>
<circle cx="75" cy="25" r="3" fill="#F53939"/>
<circle cx="100" cy="15" r="3" fill="#F53939"/>
<circle cx="131" cy="3" r="3" fill="#F53939"/>
<path d="M28.5 57L49.5 33L77 24.5L103 13L132.5 2" stroke="#F83D5E" stroke-width="2"/>
</svg>
