<svg width="168" height="53" viewBox="0 0 168 53" fill="none" xmlns="http://www.w3.org/2000/svg">
<path d="M0 52H1V51H0V52ZM6 52H8V51H6V52ZM13 52H15V51H13V52ZM20 52H22V51H20V52ZM27 52H29V51H27V52ZM34 52H36V51H34V52ZM41 52H43V51H41V52ZM48 52H50V51H48V52ZM55 52H57V51H55V52ZM62 52H64V51H62V52ZM69 52H71V51H69V52ZM76 52H78V51H76V52ZM83 52H85V51H83V52ZM90 52H92V51H90V52ZM97 52H99V51H97V52ZM104 52H106V51H104V52ZM111 52H113V51H111V52ZM118 52H120V51H118V52ZM125 52H127V51H125V52ZM132 52H134V51H132V52ZM139 52H141V51H139V52ZM146 52H148V51H146V52ZM153 52H155V51H153V52ZM160 52H162V51H160V52ZM167 52H168V51H167V52Z" fill="white"/>
<path d="M16.5 9L34.5 34L69 50.5L94 34L121.5 1.5" stroke="#F83D5E" stroke-width="2"/>
<circle cx="15" cy="7" r="3" fill="#F53939"/>
<circle cx="34" cy="33" r="3" fill="#F53939"/>
<circle cx="69" cy="50" r="3" fill="#F53939"/>
<circle cx="95" cy="33" r="3" fill="#F53939"/>
<circle cx="120" cy="4" r="3" fill="#F53939"/>
</svg>
